FILE "0 kara no Shougi - Shougi Youchien Ayumi-gumi (Japan) (Track 1).bin" BINARY
  TRACK 01 MODE2/2352
    INDEX 01 00:00:00
FILE "0 kara no Shougi - Shougi Youchien Ayumi-gumi (Japan) (Track 2).bin" BINARY
  TRACK 02 AUDIO
    INDEX 00 00:00:00
    INDEX 01 00:02:00
FILE "0 kara no Shougi - Shougi Youchien Ayumi-gumi (Japan) (Track 3).bin" BINARY
  TRACK 03 AUDIO
    INDEX 00 00:00:00
    INDEX 01 00:02:00
